<svg xmlns="http://www.w3.org/2000/svg" xmlns:xlink="http://www.w3.org/1999/xlink" width="34" height="33.997" viewBox="0 0 34 33.997"><defs><style>.a{fill:#c7c7c7;}.b{clip-path:url(#a);}</style><clipPath id="a"><rect class="a" width="34" height="33.997"/></clipPath></defs><g transform="translate(1715.806 -232.065)"><g transform="translate(-1715.806 232.065)"><g class="b"><path class="a" d="M-1361.982,463.832a.683.683,0,0,0,.743-.742.724.724,0,0,0-.743-.742.679.679,0,0,0-.664.742.66.66,0,0,0,.664.742Zm3.265,0a.683.683,0,0,0,.743-.742.724.724,0,0,0-.743-.742.679.679,0,0,0-.664.742.66.66,0,0,0,.664.742Zm0,0" transform="translate(1377.291 -452.808)"/><path class="a" d="M-1698.94,232.585a16.993,16.993,0,0,0-16.987,16.967,16.993,16.993,0,0,0,16.987,16.967,16.993,16.993,0,0,0,16.987-16.967,16.993,16.993,0,0,0-16.987-16.967Zm-4.565,8.4a.568.568,0,0,1,.186-.663.455.455,0,0,1,.663.106l.478.848a5.584,5.584,0,0,1,6.529,0l.557-.848a.344.344,0,0,1,.558-.106.48.48,0,0,1,.186.663l-.557,1.034a6.052,6.052,0,0,1,1.407,2.333v.106a.446.446,0,0,1-.478.477h-10.006a.622.622,0,0,1-.371-.663,5.008,5.008,0,0,1,1.407-2.227Zm-1.964,11.373a.877.877,0,0,1-.929.928.877.877,0,0,1-.929-.928V247.7a.877.877,0,0,1,.929-.928.877.877,0,0,1,.929.928Zm12.13.928a.877.877,0,0,1-.929.928h-.929v3.738a.877.877,0,0,1-.929.928.877.877,0,0,1-.929-.928v-3.738h-3.742v3.738a.877.877,0,0,1-.929.928.877.877,0,0,1-.929-.928v-3.738h-.929a.877.877,0,0,1-.929-.928v-7a.446.446,0,0,1,.478-.477h10.272a.446.446,0,0,1,.478.477v7Zm2.813-.928a.877.877,0,0,1-.929.928.877.877,0,0,1-.929-.928V247.7a.877.877,0,0,1,.929-.928.877.877,0,0,1,.929.928Zm0,0" transform="translate(1715.921 -232.563)"/></g></g></g></svg>