<svg xmlns="http://www.w3.org/2000/svg" width="20" height="24" viewBox="0 0 20 24"><defs><style>.a{fill:#ff7854;}.b{fill:#ffde25;}.c{fill:#ffb523;}.d{fill:#ff5c30;}</style></defs><g transform="translate(4690.572 79.064)"><path class="a" d="M-4688.11-79.064h15.076a2.388,2.388,0,0,1,2.462,2.4v19.2a2.388,2.388,0,0,1-2.462,2.4h-15.076a2.388,2.388,0,0,1-2.462-2.4v-19.2a2.388,2.388,0,0,1,2.462-2.4Z"/><path class="b" d="M-4578.56-79.064H-4572v8.322l-3.281-3.521-3.281,3.521Z" transform="translate(-108.73 0)"/><rect class="c" width="6.562" height="1.92" transform="translate(-4687.29 -79.064)"/><path class="d" d="M-4688.171-79.064h.88v24h-.88a2.357,2.357,0,0,1-2.4-2.4v-19.2a2.357,2.357,0,0,1,2.4-2.4Z"/></g></svg>