<svg xmlns="http://www.w3.org/2000/svg" width="51.448" height="39.389" viewBox="0 0 51.448 39.389"><defs><style>.a,.c{fill:none;stroke:#000;stroke-width:2px;}.a{stroke-linecap:round;stroke-linejoin:round;}.b{fill:#e0585b;}.c{stroke-miterlimit:10;}</style></defs><g transform="translate(-185.713 -37.078)"><path class="a" d="M211.967,71.145H188.242a1.529,1.529,0,0,1-1.529-1.529V39.607a1.529,1.529,0,0,1,1.529-1.529h44a1.529,1.529,0,0,1,1.528,1.529v15" transform="translate(0)"/><path class="a" d="M199.483,59.246V72.328h-4.118V57.1a2.453,2.453,0,0,1,2.452-2.453h20.318v1.666a3.421,3.421,0,0,1-3.421,3.422h-5.3v12.6h-9.932" transform="translate(-0.618 -1.183)"/><circle class="b" cx="4.36" cy="4.36" r="4.36" transform="translate(198.966 42.196)"/><path class="a" d="M218.747,68.137c0-6.393,4.208-11.574,9.4-11.574s9.4,5.182,9.4,11.574" transform="translate(-2.287 -1.32)"/><ellipse cx="1.9" cy="4.062" rx="1.9" ry="4.062" transform="translate(214.56 64.795)"/><ellipse cx="1.9" cy="4.062" rx="1.9" ry="4.062" transform="translate(233.361 64.795)"/><path class="c" d="M218.747,74.855s2.06,4.121,6.226,3.051" transform="translate(-2.287 -2.625)"/><ellipse cx="2.522" cy="1.021" rx="2.522" ry="1.021" transform="translate(222.029 74.272)"/></g></svg>