<svg xmlns="http://www.w3.org/2000/svg" width="37.996" height="26" viewBox="0 0 37.996 26"><defs><style>.a{fill:#e0585b;}.b{fill:rgba(224,88,91,0.35);}</style></defs><g transform="translate(-2086.29 -466.359)"><path class="a" d="M2395.291,808.963c-5.483,0-8.313,3.338-8.826,7.366s-1.927,7.361,8.826,7.361,9.344-3.338,8.826-7.361-3.345-7.365-8.826-7.365Z" transform="translate(-290.004 -331.331)"/><path class="b" d="M2897.045,821.265c-.459-3.525-2.977-6.444-7.85-6.444a9.119,9.119,0,0,0-3.668.721,9.941,9.941,0,0,1,3.3,6.433l.128.9a8.342,8.342,0,0,1-.249,4.823c.169,0,.313.011.489.011,9.564,0,8.31-2.921,7.85-6.444Z" transform="translate(-773.077 -336.996)"/><path class="b" d="M2086.606,821.251c.46-3.525,2.977-6.444,7.852-6.444a9.119,9.119,0,0,1,3.668.722,9.935,9.935,0,0,0-3.3,6.433l-.127.9a8.332,8.332,0,0,0,.248,4.822c-.169,0-.314.013-.488.013-9.563,0-8.31-2.921-7.851-6.444Z" transform="translate(0 -336.982)"/><path class="a" d="M2514.871,476.566a5.1,5.1,0,1,0-5.1-5.1,5.1,5.1,0,0,0,5.1,5.1Z" transform="translate(-409.618)"/><path class="b" d="M2889.606,548.339a4.078,4.078,0,1,0-2.885-1.2,4.085,4.085,0,0,0,2.885,1.2Z" transform="translate(-773.077 -71.541)"/><path class="b" d="M2202.575,548.34a4.077,4.077,0,1,0-2.886-1.195,4.085,4.085,0,0,0,2.886,1.195Z" transform="translate(-108.534 -71.542)"/></g></svg>