<svg xmlns="http://www.w3.org/2000/svg" width="24" height="23.996" viewBox="0 0 24 23.996"><defs><style>.a{fill:#fcb825;}.b{fill:#f77b00;}</style></defs><g transform="translate(868.549 -469.05)"><path class="a" d="M-844.553,471a19.183,19.183,0,0,1-1.353,6.406,16.764,16.764,0,0,1-4.338,6.433.547.547,0,0,0-.189.507c.068.664.123,1.329.192,1.993a3.82,3.82,0,0,1-1.642,3.714c-1.348.964-2.749,1.854-4.14,2.757a1.3,1.3,0,0,1-2.051-.98c-.112-1.186-.2-2.374-.283-3.562-.041-.595-.025-.6-.6-.676a4.728,4.728,0,0,1-3.571-2.244,4.972,4.972,0,0,1-.71-2.215c-.022-.236-.118-.3-.342-.309-1.245-.068-2.49-.142-3.734-.235a1.317,1.317,0,0,1-1-2.065c.39-.636.8-1.256,1.206-1.884.433-.676.863-1.354,1.3-2.029a3.907,3.907,0,0,1,3.406-1.915,22.176,22.176,0,0,1,2.52.23.393.393,0,0,0,.381-.127,17.025,17.025,0,0,1,7.089-4.6,20.216,20.216,0,0,1,4.76-1.079,8.686,8.686,0,0,1,2.468.036c.447.082.47.1.539.534a6.511,6.511,0,0,1,.1,1.311Z" transform="translate(0 0)"/><path class="b" d="M-574,569.763a2.744,2.744,0,0,0-2.646-2.744,2.738,2.738,0,0,0-2.84,2.76,2.777,2.777,0,0,0,2.7,2.709A2.754,2.754,0,0,0-574,569.763Z" transform="translate(-275.252 -93.289)"/><path class="a" d="M-857.255,799.241a.683.683,0,0,1,.7.542,5.96,5.96,0,0,0,2.827,3.338,5.8,5.8,0,0,0,.948.413.689.689,0,0,1,.287,1.213c-.649.652-1.3,1.3-1.953,1.948a.663.663,0,0,1-.752.206.677.677,0,0,1-.469-.655c-.01-.2,0-.4-.01-.6-.009-.368-.012-.372-.353-.259l-2.185.723a.758.758,0,0,1-.641-.018.676.676,0,0,1-.3-.866c.242-.745.5-1.486.744-2.23.107-.322.1-.329-.249-.335-.211,0-.423,0-.633-.01a.672.672,0,0,1-.64-.452.641.641,0,0,1,.167-.735q1.015-1.017,2.036-2.027a.587.587,0,0,1,.472-.194Z" transform="translate(-8.157 -314.416)"/></g></svg>