<svg xmlns="http://www.w3.org/2000/svg" width="52" height="36.786" viewBox="0 0 52 36.786"><defs><style>.a,.b,.c{fill:none;stroke:#000;stroke-width:2px;}.a,.b{stroke-miterlimit:10;}.b,.c{stroke-linecap:round;}.c{stroke-linejoin:round;}.d{fill:#e0585b;}</style></defs><g transform="translate(-264.636 -37.078)"><path class="a" d="M292.47,66.243H267.085a1.329,1.329,0,0,1-1.449-1.161V39.239a1.329,1.329,0,0,1,1.449-1.161h47.1a1.328,1.328,0,0,1,1.448,1.161V65.082a1.328,1.328,0,0,1-1.448,1.161Z" transform="translate(0 0)"/><g transform="translate(280.784 66.827)"><line class="b" y1="6.037" transform="translate(9.852)"/><line class="b" x2="19.705" transform="translate(0 6.037)"/></g><path class="c" d="M292.656,43.855a9.538,9.538,0,1,0,8.989,8.722h-8.989Z" transform="translate(-1.905 -0.575)"/><path class="d" d="M296.326,42.748v7.494h7.532S302.306,43.43,296.326,42.748Z" transform="translate(-3.342 -0.466)"/></g></svg>