<svg xmlns="http://www.w3.org/2000/svg" xmlns:xlink="http://www.w3.org/1999/xlink" width="34" height="33.997" viewBox="0 0 34 33.997"><defs><style>.a{fill:#c7c7c7;}.b{clip-path:url(#a);}</style><clipPath id="a"><rect class="a" width="34" height="33.997"/></clipPath></defs><g transform="translate(1229.032 -122.71)"><g transform="translate(-1229.032 122.71)"><g class="b" transform="translate(0 0)"><path class="a" d="M-1212.168,123.345a16.971,16.971,0,0,0-16.984,16.957,16.971,16.971,0,0,0,16.984,16.957,16.971,16.971,0,0,0,16.984-16.957,16.971,16.971,0,0,0-16.984-16.957Zm3.863,7.265a3.584,3.584,0,0,1,0,.8,4.016,4.016,0,0,1-.174.758v.051a4.447,4.447,0,0,1-.308.7v.072a4.6,4.6,0,0,1-.421.615l-.061.062a4.481,4.481,0,0,1-.513.512l-.072.062a4,4,0,0,1-.585.389h-.092a3.426,3.426,0,0,1-.677.307h-.1a2.948,2.948,0,0,1-.667.092l-.185-.01a4.326,4.326,0,0,1,3.859-4.406Zm3.879,15.185a10.49,10.49,0,0,1-2.268,3.156,2.937,2.937,0,0,1-1.816.84h-.872l-.205-.072-.154-.051-.236-.1-.267-.113-.185-.072-.216-.072-.174-.051-.277-.062h-.164a3.776,3.776,0,0,0-.513,0,6.328,6.328,0,0,0-2.412.656,3.085,3.085,0,0,1-.821.143h-.236l-.267-.082-.226-.072-.205-.072-.226-.123-.215-.123-.236-.174-.215-.164-.236-.215-.215-.2-.236-.256-.205-.236-.236-.3-.2-.256-.226-.338-.185-.276-.215-.369-.174-.3-.205-.4-.154-.307c-.062-.133-.113-.277-.175-.41l-.144-.328-.154-.43c-.041-.113-.072-.184-.123-.338s-.1-.359-.134-.461-.051-.154-.092-.317a2.564,2.564,0,0,0-.1-.492c-.062-.1.01-.123-.062-.308a1.76,1.76,0,0,1-.072-.553v-1.025q-.006-.1-.008-.191v-.309a5.543,5.543,0,0,1,3.3-4.921,4.888,4.888,0,0,1,1.837-.369l.246.072h.205l.267.051h.195l.257.082.185.061.277.1.154.051.39.154.236.062.164.062.226.062h.113a1.5,1.5,0,0,0,.308,0,1.413,1.413,0,0,0,.318,0h.133l.236-.072.195-.072.277-.113.339-.133.205-.164.287-.1.226-.072.3-.082h1.242a4.776,4.776,0,0,1,.667.082,4.506,4.506,0,0,1,2.935,1.854,4.673,4.673,0,0,0-1.355,1.312,4.106,4.106,0,0,0-.5,1.025,4.034,4.034,0,0,0-.195,1.1,4.149,4.149,0,0,0,.277,1.639,4.716,4.716,0,0,0,2.483,2.572,10.8,10.8,0,0,1-.472.984Zm0,0" transform="translate(1229.146 -123.313)"/></g></g></g></svg>