<?xml version="1.0" standalone="no"?><!DOCTYPE svg PUBLIC "-//W3C//DTD SVG 1.1//EN" "http://www.w3.org/Graphics/SVG/1.1/DTD/svg11.dtd"><svg t="1615873407954" class="icon" viewBox="0 0 1024 1024" version="1.1" xmlns="http://www.w3.org/2000/svg" p-id="12343" xmlns:xlink="http://www.w3.org/1999/xlink" width="128" height="128"><defs><style type="text/css"></style></defs><path d="M264.533333 337.066667c-8.533333-8.533333-12.8-21.333333-4.266666-29.866667 8.533333-8.533333 21.333333-8.533333 29.866666 0l213.333334 192c8.533333 8.533333 8.533333 21.333333 0 29.866667l-213.333334 192c-8.533333 8.533333-21.333333 8.533333-29.866666 0-8.533333-8.533333-8.533333-21.333333 0-29.866667l196.266666-174.933333-192-179.2z m256 0c-8.533333-8.533333-8.533333-21.333333 0-29.866667s21.333333-8.533333 29.866667 0l213.333333 192c8.533333 8.533333 8.533333 21.333333 0 29.866667l-213.333333 192c-8.533333 8.533333-21.333333 8.533333-29.866667 0-8.533333-8.533333-8.533333-21.333333 0-29.866667l196.266667-174.933333-196.266667-179.2z" p-id="12344"></path></svg>