<svg xmlns="http://www.w3.org/2000/svg" width="16.463" height="19.999" viewBox="0 0 16.463 19.999"><defs><style>.a{fill:#222;}</style></defs><path class="a" d="M550.852,90.6l-.66-.759a.8.8,0,0,1-.2-.522v-4.9a7.126,7.126,0,0,0-6.721-7.2,6.934,6.934,0,0,0-7.146,6.93v5.172a.792.792,0,0,1-.2.521l-.66.76a1.8,1.8,0,0,0,1.355,2.973h2.543a4.118,4.118,0,0,0,8.18,0H549.5a1.8,1.8,0,0,0,1.355-2.973Zm-7.589,5.614a3.137,3.137,0,0,1-3.09-2.641h6.18A3.138,3.138,0,0,1,543.263,96.217Zm6.957-4.107a.776.776,0,0,1-.723.466H536.63a.795.795,0,0,1-.6-1.317l.66-.759a1.8,1.8,0,0,0,.44-1.178V84.15a5.934,5.934,0,0,1,5.932-5.933c.061,0,.123,0,.184,0a6.118,6.118,0,0,1,5.751,6.2v4.9a1.8,1.8,0,0,0,.44,1.178l.66.759A.776.776,0,0,1,550.22,92.11Z" transform="translate(-534.832 -77.218)"/></svg>