<svg xmlns="http://www.w3.org/2000/svg" xmlns:xlink="http://www.w3.org/1999/xlink" width="30.051" height="30" viewBox="0 0 30.051 30"><defs><style>.a{fill:url(#a);}.b{fill:url(#b);}.c{fill:url(#c);}.d{fill:url(#d);}.e{fill:url(#e);}</style><linearGradient id="a" x1="0.058" y1="0.166" x2="0.799" y2="0.869" gradientUnits="objectBoundingBox"><stop offset="0" stop-color="#bf000f"/><stop offset="1" stop-color="#e60012"/></linearGradient><linearGradient id="b" x1="0.163" y1="1.04" x2="0.956" y2="0.26" gradientUnits="objectBoundingBox"><stop offset="0" stop-color="#bf000f"/><stop offset="1" stop-color="#e60012" stop-opacity="0"/></linearGradient><linearGradient id="c" x1="-0.027" y1="1.106" x2="0.573" y2="0.369" gradientUnits="objectBoundingBox"><stop offset="0" stop-color="#d92319"/><stop offset="1" stop-color="#e60012"/></linearGradient><linearGradient id="d" x1="0.047" y1="0.047" x2="0.632" y2="0.632" xlink:href="#a"/><linearGradient id="e" x1="0.361" y1="0.361" x2="0.897" y2="0.897" xlink:href="#a"/></defs><g transform="translate(-2036.076 -778.197)"><path class="a" d="M2078.965,866q-.352-.388-.657-.8a10.394,10.394,0,0,1,2.133-18.4,20.063,20.063,0,0,0-9.785,6.014,13.916,13.916,0,0,0,21.973,14.7A10.394,10.394,0,0,1,2078.965,866Z" transform="translate(-30.922 -62.269)"/><path class="b" d="M2175.573,899.438a10.4,10.4,0,0,0-3.029-14.207,10.395,10.395,0,0,1-14.107,14.845q.306.412.657.8a10.4,10.4,0,0,0,13.664,1.514c.271-.212.539-.432.8-.668A13.941,13.941,0,0,0,2175.573,899.438Z" transform="translate(-111.052 -97.142)"/><path class="c" d="M2053.2,780.075a8.043,8.043,0,0,0,.425-1.878,29.1,29.1,0,0,0-11.027,5.465,22.4,22.4,0,0,0-6.52,11.921,24.4,24.4,0,0,1,3.657-5.031,20.061,20.061,0,0,1,9.785-6.014,17.386,17.386,0,0,1,5.958-.386h.008l1.475-3.259.511-1.13S2055.113,780.062,2053.2,780.075Z" transform="translate(0)"/><path class="d" d="M2193.267,919.28a1.168,1.168,0,0,0-.855-.373H2188.6a1.173,1.173,0,0,0-1.173,1.173v3.811a1.169,1.169,0,0,0,.372.856A8.326,8.326,0,0,1,2193.267,919.28Z" transform="translate(-137.364 -127.706)"/><path class="e" d="M2196.07,928.722a1.173,1.173,0,0,0,1.173-1.173v-3.811a1.167,1.167,0,0,0-.317-.8,8.325,8.325,0,0,0-5.467,5.467,1.168,1.168,0,0,0,.8.317Z" transform="translate(-141.023 -131.364)"/></g></svg>