<svg xmlns="http://www.w3.org/2000/svg" width="19" height="27" viewBox="0 0 19 27"><defs><style>.a{fill:#e0585b;stroke:rgba(0,0,0,0);stroke-miterlimit:10;}</style></defs><path class="a" d="M5070.6,26h-13.2a2.385,2.385,0,0,1-2.4-2.364V2.364a2.327,2.327,0,0,1,.7-1.67A2.43,2.43,0,0,1,5057.4,0h13.2a2.386,2.386,0,0,1,2.4,2.364V23.636A2.386,2.386,0,0,1,5070.6,26Zm-8.687-4.529v2.245h4.223V21.472ZM5059.55,4.035a.5.5,0,0,0-.5.5V17.879a.5.5,0,0,0,.5.5h8.9a.5.5,0,0,0,.5-.5V4.535a.5.5,0,0,0-.5-.5Z" transform="translate(-5054.5 0.5)"/></svg>