<svg xmlns="http://www.w3.org/2000/svg" width="41.845" height="47" viewBox="0 0 41.845 47"><defs><style>.a{opacity:0.5;}.b{fill:#fff;}</style></defs><g class="a" transform="translate(-229.078 -354.1)"><path class="b" d="M235.49,393.833a1,1,0,1,0,0,2h26.271a1,1,0,0,0,0-2Z"/><path class="b" d="M269.923,358.564a1,1,0,0,0-1,1v38.592a.945.945,0,0,1-.944.944H235.345a4.267,4.267,0,1,1,0-8.534h28.747v-2h0V356.043a1.943,1.943,0,0,0-1.943-1.943H234.374a5.267,5.267,0,0,0-5.268,5.267v34.912c-.016.183-.028.367-.028.554a6.274,6.274,0,0,0,6.267,6.267h32.634a2.947,2.947,0,0,0,2.944-2.944V359.564A1,1,0,0,0,269.923,358.564Z"/></g></svg>