<svg xmlns="http://www.w3.org/2000/svg" xmlns:xlink="http://www.w3.org/1999/xlink" width="99.686" height="99.979" viewBox="0 0 99.686 99.979"><defs><style>.a{fill:url(#a);}</style><linearGradient id="a" x1="0.606" y1="1.06" x2="0.352" y2="-0.038" gradientUnits="objectBoundingBox"><stop offset="0" stop-color="#ececec" stop-opacity="0.502"/><stop offset="1" stop-color="#ebebeb"/><stop offset="1"/></linearGradient></defs><path class="a" d="M239.741,151.22a15.153,15.153,0,0,0-14.872-15.432l-59.812-.27a15.163,15.163,0,0,0-15.022,15.3l-5.3,68.934a15.156,15.156,0,0,0,14.884,15.432l69.78.316a15.163,15.163,0,0,0,15.022-15.3q-1.534-22.487-2.284-33.722-.8-11.753-2.4-35.258Zm-17.123,5.7a23.359,23.359,0,0,1-8.29,17.53,30.649,30.649,0,0,1-39.652-.179,23.361,23.361,0,0,1-8.131-17.6V156.6l6.887.042v.078c-.035,10.324,9.406,18.756,21.066,18.809s21.165-8.3,21.223-18.618v-.067l6.9.009Z" transform="translate(-144.739 -135.517)"/></svg>