<svg xmlns="http://www.w3.org/2000/svg" width="60.999" height="47" viewBox="0 0 60.999 47"><defs><style>.a{opacity:0.5;}.b{fill:#fff;}</style></defs><g class="a" transform="translate(-80.877 -356.514)"><path class="b" d="M115.877,378.126a2.989,2.989,0,0,0,0-4.119l-6.8-7.022a2.771,2.771,0,0,0-3.992,0l-13.851,14.3a2.769,2.769,0,0,1-3.992,0l-4.369-4.51c-1.1-1.133-2-.748-2,.853V400.6a2.876,2.876,0,0,0,2.821,2.912h22.258c1.552,0,1.924-.927.826-2.06l-4.757-4.912a2.988,2.988,0,0,1,0-4.12Z"/><path class="b" d="M114.673,395.892h0a3.755,3.755,0,0,1-2.714-1.152l-.267-.277a1,1,0,1,1,1.436-1.391l.268.276a1.77,1.77,0,0,0,1.277.544h0a1.773,1.773,0,0,0,1.279-.545l13.85-14.3a3.755,3.755,0,0,1,2.715-1.154h0a3.747,3.747,0,0,1,2.711,1.154l4.369,4.51a2.223,2.223,0,0,0,.25.225,2.476,2.476,0,0,0,.027-.382V360.426a1.87,1.87,0,0,0-1.821-1.912H115.8a1.944,1.944,0,0,0-.377.032,2.041,2.041,0,0,0,.268.332l4.559,4.706a1,1,0,1,1-1.436,1.392l-4.559-4.706c-1.125-1.161-.97-2.1-.778-2.552s.745-1.2,2.323-1.2h22.258a3.872,3.872,0,0,1,3.821,3.912V383.4c0,1.643-.765,2.2-1.222,2.383s-1.376.318-2.491-.834l-4.369-4.511a1.766,1.766,0,0,0-1.276-.545h0a1.771,1.771,0,0,0-1.279.546l-13.85,14.3A3.755,3.755,0,0,1,114.673,395.892Z"/></g></svg>