<svg xmlns="http://www.w3.org/2000/svg" width="43.696" height="45.999" viewBox="0 0 43.696 45.999"><defs><style>.a{fill:#4361ee;}.b{fill:none;stroke:#4361ee;stroke-linecap:round;stroke-miterlimit:10;stroke-width:3px;}</style></defs><g transform="translate(51.871 -295.595)"><path class="a" d="M-18.012,307.684c-.39-.106-.727-.248-1.1-.337a7.617,7.617,0,0,0-1.9-.212c-.178,0-.213,0-.213-.2v-1.773c0-.177,0-.212-.23-.212h-4.892a.975.975,0,0,1-1.114-.812.986.986,0,0,1,0-.287v-4.715c0-.195,0-.248-.248-.248h-20.7c-.213,0-.266,0-.266.266v38.974c0,.231,0,.266.284.266h26.922c.195,0,.283,0,.266-.266s0-.85,0-1.293c0-.142,0-.178.195-.178h2.818c.142,0,.159,0,.159.178v3.172a1.594,1.594,0,0,1-1.577,1.577H-50.092a1.648,1.648,0,0,1-1.6-.886,1.094,1.094,0,0,1-.177-.655,2.579,2.579,0,0,1,0-.373V297.369a1.771,1.771,0,0,1,.585-1.347,1.642,1.642,0,0,1,1.187-.425h24.069a2.034,2.034,0,0,1,1.524.62c1.95,1.932,3.917,3.881,5.884,5.8a1.88,1.88,0,0,1,.6,1.453Z"/><path class="a" d="M-20.9,334.341H-32.829c-.6,0-.762-.16-.762-.763v-1.559a.8.8,0,0,1,.266-.6,18.964,18.964,0,0,1,5.937-3.828,18.621,18.621,0,0,1,2.375-.745,1.084,1.084,0,0,1,.745,0,7.37,7.37,0,0,0,2.6.692,7.985,7.985,0,0,0,4.254-.727,1.128,1.128,0,0,1,.726,0,19.15,19.15,0,0,1,4.343,1.772,18.9,18.9,0,0,1,3.952,2.925.637.637,0,0,1,.213.5v1.684c0,.567-.195.673-.692.673H-20.9Z"/><path class="a" d="M-20.688,309.368a5.442,5.442,0,0,1,4.413,2.481,6.2,6.2,0,0,1,.868,5.317.3.3,0,0,0,.107.355.958.958,0,0,1,.372,1.081.9.9,0,0,1-.762.744c-.2,0-.2.142-.213.266a6.683,6.683,0,0,1-1.489,3.439,4.749,4.749,0,0,1-2.8,1.772,3.847,3.847,0,0,1-3.084-.727,6.168,6.168,0,0,1-2.57-4.431c0-.177,0-.248-.266-.283a.939.939,0,0,1-.744-.762.991.991,0,0,1,.39-1.081c.142,0,.142-.178.106-.319a6.189,6.189,0,0,1,1.772-6.346,5.463,5.463,0,0,1,3.953-1.488Z"/><line class="b" x2="11.161" transform="translate(-44.752 313.516)"/><line class="b" x2="11.161" transform="translate(-44.752 320.097)"/><line class="b" x2="11.161" transform="translate(-44.752 325.839)"/></g></svg>