<svg xmlns="http://www.w3.org/2000/svg" width="43.176" height="46" viewBox="0 0 43.176 46"><defs><style>.a{fill:#4361ee;}</style></defs><path class="a" d="M35.7,278.973l-4.791-8.946A8.769,8.769,0,0,0,22.963,257.6h-.04a8.767,8.767,0,0,0-8,12.358l.041.089-4.88,8.841a.626.626,0,0,0,.679.916l4.266-.964,1.448,4.076a.628.628,0,0,0,.526.414h.049a.614.614,0,0,0,.558-.325l4.29-7.934a8.071,8.071,0,0,0,1.926.016l4.314,7.958a.607.607,0,0,0,.542.324h.065a.64.64,0,0,0,.542-.413l1.465-4.061,4.257.989a.6.6,0,0,0,.624-.227.644.644,0,0,0,.064-.68Zm-18.712-.689-.656-1.846a.215.215,0,0,0-.25-.139l-1.943.438,2.493-4.481a9.75,9.75,0,0,0,2.63,1.879Zm5.9-6a5.928,5.928,0,0,1,.024-11.856h.024a5.928,5.928,0,0,1-.048,11.856Zm6.984,4.643a.3.3,0,0,0-.34.186l-.753,2.107-2.606-4.8a11.87,11.87,0,0,0,3.052-2.171l2.856,5.177-2.209-.5Zm-20.57,1.909a1.716,1.716,0,0,1-1.438,1.688v.022H-4.324a3.153,3.153,0,0,1-3.082-3.214V240.579a3.155,3.155,0,0,1,3.082-3.214h34.2a3.153,3.153,0,0,1,3.082,3.214v16.9a1.643,1.643,0,1,1-3.285,0v-8.066c0-.033,0-.065,0-.1l-.072-8.573-33.567.089-.105,36.348,3.372-.015a1.7,1.7,0,0,1,.36-.039h8.2v.022a1.716,1.716,0,0,1,1.438,1.688ZM24,249.4H1.684a1.8,1.8,0,1,1,0-3.6H24a1.8,1.8,0,1,1,0,3.6Zm-11.385,5.847a1.8,1.8,0,0,1,0,3.6H1.65a1.8,1.8,0,0,1,0-3.6ZM9.379,268.3H1.628a1.8,1.8,0,0,1,0-3.6H9.379a1.8,1.8,0,0,1,0,3.6Z" transform="translate(7.406 -237.365)"/></svg>