<svg xmlns="http://www.w3.org/2000/svg" width="46.772" height="47.058" viewBox="0 0 46.772 47.058"><defs><style>.a{fill:none;stroke:#4361ee;stroke-linecap:round;stroke-linejoin:round;stroke-width:3px;}.b{fill:#4361ee;}</style></defs><g transform="translate(-63.78 -276.935)"><path class="a" d="M74.594,317.259a21.246,21.246,0,1,1,32.5-22.91q.15.578.267,1.168"/><path class="a" d="M78.39,321.873l8.8-9.485,6.48,6.577,14.229-16.792"/><path class="b" d="M109.463,299.315l-3.884.922a1.252,1.252,0,0,0-.49,2.2l3.852,3.07a1.252,1.252,0,0,0,2.031-.969l.033-3.992A1.252,1.252,0,0,0,109.463,299.315Z" transform="translate(-0.452 -0.46)"/><line class="a" x2="6.986" y2="6.986" transform="translate(80.112 288.697)"/><line class="a" x1="6.986" y2="6.986" transform="translate(87.097 288.697)"/><line class="a" x1="11.256" transform="translate(81.177 296.115)"/><line class="a" x1="11.256" transform="translate(81.177 300.731)"/><line class="a" y1="11.256" transform="translate(87.097 296.667)"/></g></svg>