<svg xmlns="http://www.w3.org/2000/svg" width="49.077" height="47.426" viewBox="0 0 49.077 47.426"><defs><style>.a,.b{fill:none;stroke:#1d73fb;stroke-width:3px;}.a{stroke-miterlimit:10;}.b{stroke-linecap:round;stroke-linejoin:round;}.c{fill:#1d73fb;}</style></defs><g transform="translate(-57.775 -47.037)"><rect class="a" width="6.419" height="15.69" rx="1.125" transform="translate(59.275 77.273)"/><path class="b" d="M65.694,91.117c2.833-1.639,5.822-1.7,9.018-1.141,3.4.592,6.55,2.038,10.038,2.159,3.13.108,5.859-1.662,8.459-3.17,2.895-1.68,5.973-3.023,8.852-4.734,1.606-.955,4.667-3.187,2.416-5.1-2.108-1.791-6.287.16-8.36,1.2a28.8,28.8,0,0,1-5.043,2.457c-3.277.907-6.8-.344-10.155.2l8.434-.006c.749,0,1.77.023,2.3-.615,1.443-1.743-2.758-2.476-3.7-2.625-2.116-.334-4.251-.506-6.368-.938a32.3,32.3,0,0,0-8.09-1.053,16.06,16.06,0,0,0-7.8,2.376"/><circle class="a" cx="12.552" cy="12.552" r="12.552" transform="translate(69.723 48.537)"/><path class="c" d="M85.094,63.154a2.5,2.5,0,0,1-.764,1.923,2.931,2.931,0,0,1-2.081.712,2.778,2.778,0,0,1-2.055-.738,2.5,2.5,0,0,1-.738-1.844v-.369h1.212v.316a1.537,1.537,0,0,0,.474,1.212,1.614,1.614,0,0,0,1.107.422,1.459,1.459,0,0,0,1.633-1.528,1.326,1.326,0,0,0-.474-.975,4.468,4.468,0,0,0-1.37-.817,4.891,4.891,0,0,1-1.818-1.054,1.916,1.916,0,0,1-.553-1.37,2.292,2.292,0,0,1,.764-1.791,2.629,2.629,0,0,1,1.818-.685,2.3,2.3,0,0,1,1.976.816,2.912,2.912,0,0,1,.606,1.766H83.619A1.457,1.457,0,0,0,83.3,58.1a1.258,1.258,0,0,0-1.054-.474,1.412,1.412,0,0,0-1,.342,1.2,1.2,0,0,0-.369.922,1.22,1.22,0,0,0,.29.817,4.251,4.251,0,0,0,1.5.817,5.159,5.159,0,0,1,1.792,1.132A2.114,2.114,0,0,1,85.094,63.154Z"/><rect class="c" width="0.98" height="1.714" rx="0.234" transform="translate(81.785 65.1)"/><rect class="c" width="0.98" height="1.714" rx="0.234" transform="translate(81.785 55.364)"/></g></svg>