<svg xmlns="http://www.w3.org/2000/svg" width="46" height="45.824" viewBox="0 0 46 45.824"><defs><style>.a{fill:#4361ee;}.b{fill:#efb63c;}</style></defs><g transform="translate(157.171 -294.219)"><path class="a" d="M-142.786,340.043h-14.385v-40.16a5.673,5.673,0,0,1,5.663-5.664h3.059a5.673,5.673,0,0,1,5.663,5.664Zm-11.3-3.089h8.207V299.883a2.574,2.574,0,0,0-2.574-2.575h-3.059a2.575,2.575,0,0,0-2.574,2.575Z"/><path class="a" d="M-131.5,340.043h-14.376v-40.16a5.674,5.674,0,0,1,5.664-5.664h3.058a5.674,5.674,0,0,1,5.664,5.664v40.16Zm-11.287-3.089h8.208V299.883a2.575,2.575,0,0,0-2.575-2.575h-3.058a2.575,2.575,0,0,0-2.575,2.575h0Z"/><path class="b" d="M-112.706,340.043H-124a1.547,1.547,0,0,1-1.534-1.359l-4.737-39.275a4.688,4.688,0,0,1,1.133-3.635,4.635,4.635,0,0,1,3.47-1.555h5.067A4.64,4.64,0,0,1-116,298.3l4.819,40.016a1.515,1.515,0,0,1-.381,1.205,1.467,1.467,0,0,1-1.143.525Zm-9.927-3.089h8.187l-4.614-38.286a1.546,1.546,0,0,0-1.534-1.36h-5.067a1.546,1.546,0,0,0-1.545,1.546,1.608,1.608,0,0,0,.011.184l4.562,37.916Z"/></g></svg>