<svg xmlns="http://www.w3.org/2000/svg" width="32.173" height="53" viewBox="0 0 32.173 53"><defs><style>.a{opacity:0.5;}.b{fill:#fff;}</style></defs><g class="a" transform="translate(-152.211 -354.294)"><path class="b" d="M176.961,366.924H159.454a3.3,3.3,0,0,1-3.159-2.633l-.956-6.027a3.361,3.361,0,0,1,.644-2.832,3.2,3.2,0,0,1,2.533-1.138H177.9a3.261,3.261,0,0,1,2.478,1.216,3.35,3.35,0,0,1,.691,2.794l-.92,5.829A2.883,2.883,0,0,1,176.961,366.924Zm-18.445-10.63a1.223,1.223,0,0,0-.986.406,1.435,1.435,0,0,0-.222,1.212l.945,5.981a1.263,1.263,0,0,0,1.2,1.031h17.507c1.188,0,1.188-.659,1.188-.876l.013-.155.938-5.941a1.378,1.378,0,0,0-.269-1.174,1.265,1.265,0,0,0-.932-.484Z"/><path class="b" d="M176.4,369.127H160.017c-1.31,0-2.293.655-2.293,1.966l-5.242,24.244c-.655.655,0,1.965.656,2.293L166.9,406.8a1.982,1.982,0,0,0,2.621,0l13.76-9.173a2.195,2.195,0,0,0,.983-2.621l-5.242-24.244a2.593,2.593,0,0,0-2.621-1.638Z"/></g></svg>