<svg xmlns="http://www.w3.org/2000/svg" width="52" height="42.208" viewBox="0 0 52 42.208"><defs><style>.a{fill:none;stroke:#000;stroke-linecap:round;stroke-linejoin:round;stroke-width:2px;}.b{fill:#e0585b;}</style></defs><g transform="translate(-107.111 -37.078)"><path class="a" d="M134.263,72.277H109.695a1.582,1.582,0,0,1-1.584-1.582V39.66a1.582,1.582,0,0,1,1.584-1.582h45.562a1.582,1.582,0,0,1,1.584,1.582V55.177" transform="translate(0 0)"/><path class="a" d="M121.065,59.452V73.117h-4.3V57.206a2.563,2.563,0,0,1,2.563-2.563h21.225v1.74a3.575,3.575,0,0,1-3.575,3.575h-5.535V73.117H121.065" transform="translate(-0.394 -0.84)"/><circle class="b" cx="4.555" cy="4.555" r="4.555" transform="translate(120.779 42.38)"/><path class="a" d="M158.109,64.174a10.026,10.026,0,1,1-2.04-2.471l-1.516-3.049" transform="translate(-1.366 -0.96)"/><g transform="translate(145.363 62.99)"><line class="a" x2="2.731" y2="4.373"/><path class="a" d="M149.769,74.674V68.487l2.731-4.373" transform="translate(-147.038 -64.114)"/></g><line class="a" x2="7.604" transform="translate(144.292 67.505)"/><line class="a" x2="7.604" transform="translate(144.292 70.694)"/></g></svg>