<svg xmlns="http://www.w3.org/2000/svg" width="24" height="19.412" viewBox="0 0 24 19.412"><defs><style>.a{fill:#8d8d8d;}</style></defs><path class="a" d="M-423.376,1197.2c.273,0,.546.025.818.049-.731-3.39-4.4-5.923-8.569-5.923-4.669.016-8.493,3.171-8.493,7.177,0,2.31,1.275,4.214,3.393,5.689l-.855,2.53,2.973-1.473a14.725,14.725,0,0,0,2.972.417c.273,0,.532-.012.792-.035a6.43,6.43,0,0,1-.259-1.771,6.946,6.946,0,0,1,7.231-6.659Zm-4.569-2.283a1,1,0,0,1,1.065,1.057,1,1,0,0,1-1.065,1.056,1.188,1.188,0,0,1-1.275-1.056,1.188,1.188,0,0,1,1.275-1.057Zm-5.945,2.113a1.189,1.189,0,0,1-1.275-1.056,1.188,1.188,0,0,1,1.275-1.057,1,1,0,0,1,1.065,1.057,1,1,0,0,1-1.065,1.056Zm18.269,6.741c0-3.366-3.393-6.118-7.221-6.118-4.036,0-7.219,2.752-7.219,6.118s3.182,6.119,7.219,6.119a10.907,10.907,0,0,0,2.552-.418l2.328,1.265-.643-2.1c1.71-1.289,2.985-2.974,2.985-4.865Zm-9.561-1.056a.915.915,0,0,1-.855-.848.928.928,0,0,1,.855-.849.965.965,0,0,1,1.065.849.964.964,0,0,1-1.065.848Zm4.669,0a.9.9,0,0,1-.843-.848.915.915,0,0,1,.843-.849.966.966,0,0,1,1.065.849.965.965,0,0,1-1.065.848Zm0,0" transform="translate(439.621 -1191.323)"/></svg>