<svg xmlns="http://www.w3.org/2000/svg" width="33.997" height="33.997" viewBox="0 0 33.997 33.997"><defs><style>.a{fill:#c7c7c7;}</style></defs><g transform="translate(1638.894 0.675)"><path class="a" d="M-1385.447,280.453c-.3.224-.591.28-.73.664a1.033,1.033,0,0,0,1.295,1.261,1.034,1.034,0,0,0,.631-1.394C-1384.451,280.594-1384.825,280.436-1385.447,280.453Z" transform="translate(-242.178 -269.46)"/><path class="a" d="M-1203.9,403.7l-.365.1c-.214.128-.642.653-.364,1.03a.861.861,0,0,0,1.128.5c.251-.1.33-.315.5-.5h0C-1202.941,404.136-1203.214,403.737-1203.9,403.7Z" transform="translate(-416.154 -387.597)"/><path class="a" d="M-1261.978,282.387h0c1.1-.4.891-1.969-.563-1.927-.323.215-.646.28-.764.7A1.048,1.048,0,0,0-1261.978,282.387Z" transform="translate(-359.969 -269.468)"/><path class="a" d="M-1621.9-.675a17,17,0,0,0-17,17,17,17,0,0,0,17,17,17,17,0,0,0,17-17A17,17,0,0,0-1621.9-.675Zm-4.567,20.7a2.784,2.784,0,0,0-.864-.2,4.444,4.444,0,0,0-.7.4c-.629.327-1.259.625-1.892.929v-.067a3.419,3.419,0,0,0,.3-.929,7.364,7.364,0,0,0,.4-1.23,6.013,6.013,0,0,1-2.755-3.485,5.517,5.517,0,0,1,.132-3.187A6.836,6.836,0,0,1-1627.89,8.5a11.963,11.963,0,0,1,1.793-.465,7.208,7.208,0,0,1,2.523.034c.364.084.663.06,1,.166a7.35,7.35,0,0,1,3.918,2.555,4.311,4.311,0,0,1,1.062,2.359,6.157,6.157,0,0,0-2.69.364,5.968,5.968,0,0,0-4.15,4.051,4.61,4.61,0,0,0-.065,1.892,4.72,4.72,0,0,1,.166.7A9.5,9.5,0,0,1-1626.463,20.024Zm14.641-.033a5.34,5.34,0,0,1-1.295,2.091c-.183.14-.963.667-1,.863a3.928,3.928,0,0,1,.3.963,4.646,4.646,0,0,1,.266.8h-.034a8.735,8.735,0,0,0-1.527-.764,3.405,3.405,0,0,0-.63-.365c-.135-.031-.356.1-.465.133-.371.1-.783.084-1.161.166a3.527,3.527,0,0,1-1.295-.067l-.466-.033a7.911,7.911,0,0,1-2.125-.731,5.789,5.789,0,0,1-2.424-2.557,4.716,4.716,0,0,1,1.428-5.411,7.864,7.864,0,0,1,2.323-1.23c.286-.091.592-.132.864-.2.177-.042.4.019.531-.067,3.092-.044,5.015.919,6.176,2.789A4.492,4.492,0,0,1-1611.821,19.991Z" transform="translate(0 0)"/><path class="a" d="M-1099.234,403.7c-.2.125-.46.113-.6.3a.928.928,0,0,0,.166,1.228h0c.73.486,1.387-.112,1.361-.931C-1098.6,403.979-1098.6,403.724-1099.234,403.7Z" transform="translate(-516.538 -387.597)"/></g></svg>