<svg xmlns="http://www.w3.org/2000/svg" width="52" height="46.729" viewBox="0 0 52 46.729"><defs><style>.a{fill:none;stroke:#000;stroke-miterlimit:10;stroke-width:2px;}.b{fill:#cd0014;}</style></defs><g transform="translate(-345.71 -34.078)"><circle class="a" cx="9.139" cy="9.139" r="9.139" transform="translate(362.571 35.078)"/><path class="a" d="M11.985,0h26.03A11.985,11.985,0,0,1,50,11.985v6.122a4.827,4.827,0,0,1-4.827,4.827H4.827A4.827,4.827,0,0,1,0,18.106V11.985A11.985,11.985,0,0,1,11.985,0Z" transform="translate(346.71 56.873)"/><path class="b" d="M373.908,61.668c0-.4-1.378-1.711-1.378-1.711h-3.715s-1.378,1.169-1.378,1.711a17.459,17.459,0,0,0,1.8,3.256s-1.8,6.763-1.8,7.431,2.4,2.714,3.236,2.714,3.236-2.15,3.236-2.714-1.8-7.431-1.8-7.431a25.29,25.29,0,0,0,1.8-3.256Z" transform="translate(1.038 0.827)"/></g></svg>