<?xml version="1.0" standalone="no"?><!DOCTYPE svg PUBLIC "-//W3C//DTD SVG 1.1//EN" "http://www.w3.org/Graphics/SVG/1.1/DTD/svg11.dtd"><svg t="1619341468392" class="icon" viewBox="0 0 1024 1024" version="1.1" xmlns="http://www.w3.org/2000/svg" p-id="1017" xmlns:xlink="http://www.w3.org/1999/xlink" width="128" height="128"><defs><style type="text/css"></style></defs><path d="M849 66c24.853 0 45 20.147 45 45v693.257H284.3a1.5 1.5 0 0 0-1.493 1.356l-0.007 0.144v73.372a1.5 1.5 0 0 0 1.356 1.493l0.144 0.007H894V912c0 24.853-20.147 45-45 45H175c-24.853 0-45-20.147-45-45V111c0-24.853 20.147-45 45-45h133v356.588a15 15 0 0 0 1.425 6.381l0.194 0.397c3.743 7.39 12.769 10.347 20.159 6.603l92.166-46.683a30 30 0 0 1 27.112 0l92.166 46.683a15 15 0 0 0 6.778 1.619c8.284 0 15-6.716 15-15V66h286z" fill="#3A6FD9" p-id="1018"></path></svg>