<svg xmlns="http://www.w3.org/2000/svg" width="15" height="14.36" viewBox="0 0 15 14.36"><defs><style>.a{fill:#3a6fd9;}</style></defs><path class="a" d="M186.749,301.3l1.574,3.19a.96.96,0,0,0,.723.525l3.52.512a.96.96,0,0,1,.532,1.637l-2.547,2.483a.959.959,0,0,0-.276.849l.6,3.506a.96.96,0,0,1-1.393,1.012l-3.148-1.655a.961.961,0,0,0-.893,0l-3.148,1.655A.96.96,0,0,1,180.9,314l.6-3.506a.959.959,0,0,0-.276-.849l-2.547-2.483a.96.96,0,0,1,.532-1.637l3.52-.512a.959.959,0,0,0,.722-.525l1.574-3.19A.96.96,0,0,1,186.749,301.3Z" transform="translate(-178.389 -300.767)"/></svg>