<svg xmlns="http://www.w3.org/2000/svg" xmlns:xlink="http://www.w3.org/1999/xlink" width="147.475" height="36.551" viewBox="0 0 147.475 36.551"><defs><style>.a{fill:url(#a);}.b{fill:url(#b);}.c{fill:url(#c);}.d{fill:url(#d);}.e{fill:url(#e);}.f{fill:#e0585b;}</style><linearGradient id="a" x1="0.058" y1="0.166" x2="0.799" y2="0.869" gradientUnits="objectBoundingBox"><stop offset="0" stop-color="#bf000f"/><stop offset="1" stop-color="#e60012"/></linearGradient><linearGradient id="b" x1="0.163" y1="1.04" x2="0.956" y2="0.26" gradientUnits="objectBoundingBox"><stop offset="0" stop-color="#bf000f"/><stop offset="1" stop-color="#e60012" stop-opacity="0"/></linearGradient><linearGradient id="c" x1="-0.027" y1="1.106" x2="0.573" y2="0.369" gradientUnits="objectBoundingBox"><stop offset="0" stop-color="#d92319"/><stop offset="1" stop-color="#e60012"/></linearGradient><linearGradient id="d" x1="0.047" y1="0.047" x2="0.633" y2="0.633" xlink:href="#a"/><linearGradient id="e" x1="0.361" y1="0.361" x2="0.897" y2="0.897" xlink:href="#a"/></defs><g transform="translate(-1612.71 -2431.124)"><g transform="translate(1612.71 2431.124)"><path class="a" d="M1657.523,2523.123q-.429-.473-.8-.975a12.664,12.664,0,0,1,2.6-22.414,24.444,24.444,0,0,0-11.922,7.327,16.955,16.955,0,0,0,26.771,17.907A12.664,12.664,0,0,1,1657.523,2523.123Z" transform="translate(-1642.944 -2492.008)"/><path class="b" d="M1755.948,2555.467a12.668,12.668,0,0,0-3.691-17.31,12.665,12.665,0,0,1-17.188,18.087q.373.5.8.975a12.664,12.664,0,0,0,16.647,1.845c.331-.259.657-.527.973-.814A17.034,17.034,0,0,0,1755.948,2555.467Z" transform="translate(-1721.292 -2526.105)"/><path class="c" d="M1633.572,2433.413a9.82,9.82,0,0,0,.518-2.289,35.453,35.453,0,0,0-13.436,6.658,27.285,27.285,0,0,0-7.944,14.524,29.722,29.722,0,0,1,4.455-6.13,24.44,24.44,0,0,1,11.922-7.327,21.175,21.175,0,0,1,7.259-.47h.01l1.8-3.971.623-1.376S1635.9,2433.4,1633.572,2433.413Z" transform="translate(-1612.71 -2431.124)"/><path class="d" d="M1771.175,2572.288a1.422,1.422,0,0,0-1.042-.454h-4.643a1.429,1.429,0,0,0-1.429,1.429v4.643a1.423,1.423,0,0,0,.454,1.042A10.144,10.144,0,0,1,1771.175,2572.288Z" transform="translate(-1747.019 -2555.99)"/><path class="e" d="M1773.71,2582.912a1.429,1.429,0,0,0,1.429-1.428v-4.643a1.422,1.422,0,0,0-.386-.975,10.143,10.143,0,0,0-6.66,6.66,1.422,1.422,0,0,0,.975.386Z" transform="translate(-1750.596 -2559.567)"/></g><g transform="translate(1662.755 2440.015)"><path class="f" d="M2075.014,2525.113q-.041.506-.091,1.024t-.152,1.023a6.257,6.257,0,0,1-.274,1.024,1.493,1.493,0,0,1-.416.618,1.734,1.734,0,0,1-.669.334,5.248,5.248,0,0,1-1.013.152,26.588,26.588,0,0,1-4.155,0,5.889,5.889,0,0,1-.912-.152,2.758,2.758,0,0,1-.79-.324,1.72,1.72,0,0,1-.557-.547,1.5,1.5,0,0,1-.213-.821,3.533,3.533,0,0,1,.1-.77h-3.162v3.081h-1.905v-3.081h-3.648v-1.783h3.648v-1.419h-2.838v-7.155h2.817v-1.338h-3.162v-1.723h3.162v-1.845l1.926.081v1.764h3.081v1.723h-3.081v1.338h2.675v1.257a19.945,19.945,0,0,0,1.642-3.02,27.478,27.478,0,0,0,1.2-3.385l1.864.487q-.182.567-.354,1.094t-.375,1.054h5.412v1.946h-6.2q-.284.588-.557,1.145t-.6,1.125h5.817v1.8q-1.622,1.865-2.635,3.152T2069,2525.1a9.485,9.485,0,0,0-.78,1.287,1.929,1.929,0,0,0-.2.588.341.341,0,0,0,.142.324,1.761,1.761,0,0,0,.608.122q.81.081,1.561.091a11.4,11.4,0,0,0,1.56-.091,3.345,3.345,0,0,0,.527-.1.8.8,0,0,0,.314-.163.585.585,0,0,0,.162-.253,2.859,2.859,0,0,0,.091-.375,8.764,8.764,0,0,0,.122-.993q.04-.568.061-1.034Zm-15.16-7.135v1.095h3.688v-1.095Zm0,3.851h3.688v-1.175h-3.688Zm6.1,4.54a9.818,9.818,0,0,1,1.54-2.736,42.565,42.565,0,0,1,3.3-3.811h-3.871v-1.074l-1.541-1.095v5.817h-2.675v1.419h3.243Z" transform="translate(-2057.158 -2511.046)"/><path class="f" d="M2246.63,2519.834V2518.6l-1.581.426-.568-1.642q1.318-.283,2.442-.608t2.1-.669a11.091,11.091,0,0,1-1.662-1.4q-.386.345-.771.679t-.79.659l-.973-1.236-1.074,3.061a9.819,9.819,0,0,1,1.094,2.442,8.47,8.47,0,0,1,.3,2.219v.324a2.676,2.676,0,0,1-.02.324q.425-.77.78-1.591a16.687,16.687,0,0,0,.6-1.591l1.541.466c-.041.149-.085.291-.132.426s-.1.277-.152.426h2.169V2520.2l1.844.081v1.034h3.891v1.6h-3.891v1.155h3.567v1.6h-3.567v1.236h4.54v1.581h-11.654v-1.581h5.27v-1.236h-3.486v-1.52q-.263.446-.507.811l-1.013-.689a1.468,1.468,0,0,1-.75.841,5.72,5.72,0,0,1-1.439.416l-.507.081-.689-2.027.446-.081q.405-.081.679-.162a.986.986,0,0,0,.426-.233.83.83,0,0,0,.213-.405,2.894,2.894,0,0,0,.061-.659,7.385,7.385,0,0,0-1.459-3.831l1.5-4.722h-2.027v15.485h-1.7v-17.35h5.614v1.865l-.365,1.054q.567-.446,1.135-.983t1.064-1.094q.5-.557.912-1.125a10.591,10.591,0,0,0,.7-1.074l1.581.851q-.142.223-.294.466t-.314.466h5.837v1.581a11.431,11.431,0,0,1-1.3,1.328,11.268,11.268,0,0,1-1.581,1.145,16.676,16.676,0,0,0,2.037.588q1.084.244,2.321.405l-.628,1.7q-.406-.1-.8-.182t-.78-.183v1.4Zm.466,3.081q-.162.3-.3.588t-.3.567h3.446v-1.155Zm7.459-4.541a22.523,22.523,0,0,1-3.729-1.277q-.751.345-1.591.669t-1.814.607Zm-6.081-4.824a7.844,7.844,0,0,0,2.331,1.764,11.335,11.335,0,0,0,2.574-1.764h-4.905Z" transform="translate(-2219.126 -2510.248)"/><path class="f" d="M2420.272,2520.384h6.445v8.431h-2.088v-.75h-8.513v.791h-2.088v-8.087q-.405.2-.841.405l-.922.426-.871-1.723a13.265,13.265,0,0,0,2.675-1.348,4.178,4.178,0,0,0,1.479-1.733h-3.729v-1.6h1.52l-1.277-.973a13.617,13.617,0,0,0,1.368-2.108,16.7,16.7,0,0,0,.922-2.027l1.7.608q-.1.3-.244.638t-.3.678h5.088v1.6h-2.817q-.021.385-.021.74t-.02.577v.264H2421v1.6h-3.466a.084.084,0,0,1-.02.061q.445.223.952.487t.983.537q.476.274.892.537t.7.466Zm-4.358-5.189v-.182c.013-.176.021-.389.021-.639v-.76h-1.277q-.244.406-.507.8t-.548.781Zm.953,3.263a4.733,4.733,0,0,1-.892,1.024,8.941,8.941,0,0,1-1.277.9h5.148q-.649-.487-1.459-1T2416.867,2518.458Zm7.763,3.588h-8.513v1.358h8.513Zm0,4.358v-1.378h-8.513v1.378Zm3.588-14.552v7.459h-6.79v-7.459Zm-1.845,1.783h-3.1v3.851h3.1Z" transform="translate(-2371.508 -2510.088)"/><path class="f" d="M2588.875,2532.47a19.486,19.486,0,0,0,1.3-1.6,18.885,18.885,0,0,0,1.115-1.682l1.581.932a15.049,15.049,0,0,1-1.226,1.814q-.72.922-1.328,1.631Zm4.216-10.012h-3.709v-1.277h3.709v-.932h-2.9v-1.216h2.9v-.912h-3.283v-1.3h3.283v-1.135l1.845.081v1.054h2.594v1.3h-2.594v.912h2.432v1.216h-2.432v.932h2.675v1.277h-2.675v.831h-1.845Zm11.654,6.425H2598.4q.365.365.78.821l.821.9-1.216,1.2q-.486-.608-1.074-1.267t-1.013-1.084l.649-.567h-6.83v-1.236h12.343v-.831h-11.715v-1.155h11.715v-.831h-12.121v-1.216h14.005Zm-4.033,2.29q.04-.223.081-.588t.061-.709l1.763.689a10.234,10.234,0,0,1-.162,1.176,4.221,4.221,0,0,1-.294.882,1.5,1.5,0,0,1-.466.568,2.143,2.143,0,0,1-.75.324,5.535,5.535,0,0,1-1.125.132,39.181,39.181,0,0,1-3.993,0,5.968,5.968,0,0,1-1.115-.122,1.585,1.585,0,0,1-.719-.345,1.313,1.313,0,0,1-.385-.668,4.439,4.439,0,0,1-.111-1.094v-2.068l1.885.081v1.682a.943.943,0,0,0,.253.78,1.734,1.734,0,0,0,.9.233,19.581,19.581,0,0,0,2.817,0,2,2,0,0,0,.993-.233A1.12,1.12,0,0,0,2600.711,2531.173Zm.122-8.715H2598v-1.277h2.838v-.932h-2.615v-1.216h2.615v-.912h-2.777v-1.3h2.777v-1.155l1.8.081v1.074h3.222v1.3h-3.222v.912h2.858v1.216h-2.858v.932h3.588v1.277h-3.588v.831h-1.8Zm2.858,6.425q.324.344.709.76t.76.841q.375.426.74.851t.648.77l-1.338,1.257q-.568-.771-1.338-1.692t-1.5-1.713Z" transform="translate(-2529.003 -2515.04)"/><path class="f" d="M2776.891,2529.427q-.467.832-1.064,1.773t-1.216,1.845q-.618.9-1.2,1.652a12.389,12.389,0,0,1-1,1.176l8.188-.446q-.75-1.014-1.449-1.926t-1.226-1.52l1.7-1.236q.506.588,1.2,1.439t1.418,1.784q.73.932,1.419,1.864t1.216,1.682l-1.6,1.662q-.264-.406-.588-.852t-.669-.952q-.709.04-2.037.091t-2.909.132q-1.581.081-3.222.172t-2.959.213q-.426.041-.8.1t-.7.1l-.608-2.067a2.624,2.624,0,0,0,.791-.4q.223-.193.446-.375a14.89,14.89,0,0,0,1.084-1.175q.578-.689,1.156-1.479t1.115-1.632q.537-.841.983-1.632h-6.385v-2.006h17.39v2.006Zm6.749-5.472H2769.7v-1.986h13.945Z" transform="translate(-2687.934 -2520.63)"/></g></g></svg>