<?xml version="1.0" standalone="no"?><!DOCTYPE svg PUBLIC "-//W3C//DTD SVG 1.1//EN" "http://www.w3.org/Graphics/SVG/1.1/DTD/svg11.dtd"><svg t="1582959821867" class="icon" viewBox="0 0 1024 1024" version="1.1" xmlns="http://www.w3.org/2000/svg" p-id="6199" xmlns:xlink="http://www.w3.org/1999/xlink" width="200" height="200"><defs><style type="text/css"></style></defs><path d="M897.88739395 423.27492905c0-22.38636017-12.04908371-41.4572525-31.4428711-49.76909638-17.80480386-7.63129234-38.95597458-5.646801-55.1972866 5.18099785l-0.37233352 0.24873733-244.77916718 177.20140458-135.09218216-94.85312463c-20.24505615-14.39432144-47.47175217-13.23328972-66.30240441 2.82108308L150.07713508 644.01077461c-12.01663971 9.3492794-19.74526405 25.66783906-19.74526405 41.80872917v101.22219087c0 30.22004128 24.58637238 54.80564118 54.80641366 54.80564116h659.52472686c15.40703774 0 30.11189461-6.48416519 40.34411431-17.78935432 9.15075303-10.11094094 13.80414963-23.30328941 12.88104057-36.39058113v-364.39247131zM850.64197731 792.95731735c-1.43989563 1.59207344-3.67544174 2.54144668-5.97896576 2.54144669H185.13828469c-4.58464622 0-8.45784187-3.87319565-8.45784188-8.45706939V685.81950378c0-2.21314431 1.22437478-4.56224441 1.9180584-5.27215004l0.38546562-0.28890609 215.57724952-180.70381165 0.194664-0.16453742c2.94081687-2.52058983 6.95846557-2.06714631 9.40721513-0.31980515l162.34514237 113.98736 270.72278022-195.98261833c3.27143669-2.04937935 7.53627776-2.43330002 10.95602989-0.9671402 3.10998916 1.33329392 3.35254669 5.82292556 3.35254669 7.16780661v366.50364878l0.11432648 1.14944458c0.04943849 0.49824714-0.34761428 1.29467011-1.01194382 2.02852248z" fill="#095EB3" p-id="6200"></path><path d="M372.53251267 325.99236679l151.01059912 112.84332276c17.55143166 13.76089095 43.75691414 13.71531487 61.25041009-0.13595581l259.62924957-200.62211037-16.42207145 75.79613685 45.29723167 9.81431008 23.70883942-109.42666054 0.07570266-0.36151886c3.80058289-18.99982453-4.73064423-33.16008567-11.47899627-42.15943336-10.85020066-14.46770668-28.48428726-21.35046958-46.1531353-18.06203843L730.49025726 170.02169799l6.87503815 45.83564759 74.46516037-11.1700058-255.50422668 197.43564605-0.28349877 0.22401811c-0.80723763 0.54923057-3.11385155 0.54923057-3.8971424 0.01699447l-181.26849176-135.46915053L119.72422791 477.47726631l29.77895737 35.51613808 223.02932739-187.0010376z m475.99133491-126.44431115a42.26680756 42.26680756 0 0 1 1.67627334 2.3854065l-2.07178115-2.68126487c0.11278151 0.02703667 0.25028229 0.10196685 0.39550781 0.29585837z" fill="#095EB3" p-id="6201"></path></svg>