<svg xmlns="http://www.w3.org/2000/svg" width="101" height="74.718" viewBox="0 0 101 74.718"><defs><style>.a{fill:#fff;}.a,.d,.e{stroke:#979fc2;stroke-linecap:round;}.a,.d{stroke-miterlimit:10;}.b,.d{fill:none;}.c,.e{fill:#979fc2;}</style></defs><g transform="translate(3.8 -4.4)"><line class="a" x2="9.563" transform="translate(11.958 36.512)"/><g transform="translate(24.842 17.518)"><path class="b" d="M22.4,53.585a.857.857,0,0,1-.8-.8V15.6a.857.857,0,0,1,.8-.8h53.13a.857.857,0,0,1,.8.8V52.788a.857.857,0,0,1-.8.8Z" transform="translate(-20.936 -14.269)"/><path class="c" d="M75.691,15.728h0l.133,37.191a.13.13,0,0,1-.133.133H22.561a.13.13,0,0,1-.133-.133V15.728a.13.13,0,0,1,.133-.133h53.13m0-1.2H22.561A1.474,1.474,0,0,0,21.1,15.861V53.052a1.474,1.474,0,0,0,1.461,1.461h53.13a1.474,1.474,0,0,0,1.461-1.461V15.861c-.133-.93-.664-1.461-1.461-1.461Z" transform="translate(-21.1 -14.4)"/></g><g transform="translate(18.732 24.027)"><path class="b" d="M17.8,58.485a.857.857,0,0,1-.8-.8V20.5a.857.857,0,0,1,.8-.8h53.13a.857.857,0,0,1,.8.8V57.688a.857.857,0,0,1-.8.8Z" transform="translate(-16.336 -19.169)"/><path class="c" d="M71.091,20.628h0l.133,37.191a.13.13,0,0,1-.133.133H17.961a.13.13,0,0,1-.133-.133V20.628a.13.13,0,0,1,.133-.133h53.13m0-1.2H17.961A1.474,1.474,0,0,0,16.5,20.761V57.952a1.474,1.474,0,0,0,1.461,1.461h53.13a1.474,1.474,0,0,0,1.461-1.461V20.761A1.474,1.474,0,0,0,71.091,19.3Z" transform="translate(-16.5 -19.3)"/></g><line class="d" x2="6.641" transform="translate(37.859 43.685)"/><line class="d" x2="5.844" transform="translate(37.859 50.724)"/><line class="d" x2="15.54" transform="translate(37.859 47.005)"/><g transform="translate(28.827 35.051)"><circle class="d" cx="10.626" cy="10.626" r="10.626"/><circle class="d" cx="8.235" cy="8.235" r="8.235" transform="translate(2.391 2.391)"/><path class="d" d="M28.4,36.816A4.207,4.207,0,0,1,30.661,32.7a2.678,2.678,0,0,1,1.461-.4" transform="translate(-22.692 -26.057)"/><rect class="c" width="8.634" height="1.461" transform="translate(18.339 17.443) rotate(45)"/><path class="c" d="M51.285,52.494l-2.258,2.391a.249.249,0,0,1-.4,0l-7.7-7.7a.249.249,0,0,1,0-.4l2.258-2.258a.249.249,0,0,1,.4,0l7.7,7.7C51.418,52.228,51.418,52.361,51.285,52.494Z" transform="translate(-18.61 -22.077)"/></g><path class="e" d="M0,0H60.966" transform="translate(19.795 63.476)"/><line class="a" x2="5.18" transform="translate(83.152 63.476)"/><circle class="d" cx="2.656" cy="2.656" r="2.656" transform="translate(78.105 73.305)"/><circle class="d" cx="2.258" cy="2.258" r="2.258" transform="translate(92.184 52.185)"/><circle class="d" cx="1.461" cy="1.461" r="1.461" transform="translate(13.685 54.709)"/><circle class="d" cx="3.055" cy="3.055" r="3.055" transform="translate(26.702 4.9)"/><g transform="translate(85.277 12.604)"><line class="d" x2="6.11" transform="translate(0 3.055)"/><line class="d" y2="6.11" transform="translate(3.055)"/></g><g transform="translate(9.7 19.776)"><line class="d" x2="3.852" transform="translate(0 1.86)"/><line class="d" y2="3.852" transform="translate(1.86)"/></g><g transform="translate(-3.3 43.776)"><line class="d" x2="3.852" transform="translate(0 1.86)"/><line class="d" y2="3.852" transform="translate(1.86)"/></g><g transform="translate(28.827 68.523)"><line class="d" x2="6.11" transform="translate(0 3.055)"/><line class="d" y2="6.11" transform="translate(3.055)"/></g></g></svg>