<svg xmlns="http://www.w3.org/2000/svg" width="26" height="27" viewBox="0 0 26 27"><defs><style>.a,.b,.d{fill:none;}.a,.b{stroke:#222;}.b{stroke-linecap:round;}.c{stroke:none;}</style></defs><g transform="translate(-70 -609)"><g class="a" transform="translate(76 609)"><path class="c" d="M0,0H20a0,0,0,0,1,0,0V22a5,5,0,0,1-5,5H0a0,0,0,0,1,0,0V0A0,0,0,0,1,0,0Z"/><path class="d" d="M1,.5H19a.5.5,0,0,1,.5.5V22A4.5,4.5,0,0,1,15,26.5H1A.5.5,0,0,1,.5,26V1A.5.5,0,0,1,1,.5Z"/></g><g class="a" transform="translate(70 621)"><path class="c" d="M3,0H7A0,0,0,0,1,7,0V15a0,0,0,0,1,0,0H3a3,3,0,0,1-3-3V3A3,3,0,0,1,3,0Z"/><path class="d" d="M3,.5H6a.5.5,0,0,1,.5.5V14a.5.5,0,0,1-.5.5H3A2.5,2.5,0,0,1,.5,12V3A2.5,2.5,0,0,1,3,.5Z"/></g><g transform="translate(0 1)"><path class="b" d="M8024.206,6606H8037.1" transform="translate(-7944 -5989.504)"/><path class="b" d="M8024.206,6606h10.147" transform="translate(-7944 -5983.504)"/><path class="b" d="M8024.206,6606h6.447" transform="translate(-7944 -5977.504)"/></g></g></svg>